<svg xmlns="http://www.w3.org/2000/svg" width="905" height="20">
<linearGradient id="a" x2="0" y2="100%">
    <stop offset="0" stop-color="#bbb" stop-opacity=".1"/>
    <stop offset="1" stop-opacity=".1"/>
</linearGradient>

<rect rx="3" x="0" y="0" width="125" height="20" fill="#595959"/>
<rect rx="3" x="85" y="0" width="40" height="20" fill="#c266ff"/>
<rect rx="0" x="40" y="0" width="50" height="20" fill="#cc00cc"/>
<g fill="#fff" text-anchor="middle" font-family="DejaVu Sans,Verdana,Geneva,sans-serif" font-size="11">
    <text x="18" y="15" fill="#010101" fill-opacity=".3">v0.1</text><text x="18" y="14">v0.1</text>
    <text x="65" y="15" fill="#010101" fill-opacity=".3">Delayed</text><text x="65" y="14">Delayed</text>
    <text x="108" y="15" fill="#010101" fill-opacity=".3">To do</text><text x="108" y="14">To do</text>
</g>
<rect rx="3" x="130" y="0" width="125" height="20" fill="#595959"/>
<rect rx="3" x="215" y="0" width="40" height="20" fill="#ff9933"/>
<rect rx="0" x="170" y="0" width="50" height="20" fill="#005ce6"/>
<g fill="#fff" text-anchor="middle" font-family="DejaVu Sans,Verdana,Geneva,sans-serif" font-size="11">
    <text x="148" y="15" fill="#010101" fill-opacity=".3">v1.0</text><text x="148" y="14">v1.0</text>
    <text x="195" y="15" fill="#010101" fill-opacity=".3">On time</text><text x="195" y="14">On time</text>
    <text x="238" y="15" fill="#010101" fill-opacity=".3">Fail</text><text x="238" y="14">Fail</text>
</g>
<rect rx="3" x="260" y="0" width="125" height="20" fill="#595959"/>
<rect rx="3" x="345" y="0" width="40" height="20" fill="#c266ff"/>
<rect rx="0" x="300" y="0" width="50" height="20" fill="#cc00cc"/>
<g fill="#fff" text-anchor="middle" font-family="DejaVu Sans,Verdana,Geneva,sans-serif" font-size="11">
    <text x="278" y="15" fill="#010101" fill-opacity=".3">v1.1</text><text x="278" y="14">v1.1</text>
    <text x="325" y="15" fill="#010101" fill-opacity=".3">Delayed</text><text x="325" y="14">Delayed</text>
    <text x="368" y="15" fill="#010101" fill-opacity=".3">To do</text><text x="368" y="14">To do</text>
</g>
<rect rx="3" x="390" y="0" width="125" height="20" fill="#595959"/>
<rect rx="3" x="475" y="0" width="40" height="20" fill="#c266ff"/>
<rect rx="0" x="430" y="0" width="50" height="20" fill="#cc00cc"/>
<g fill="#fff" text-anchor="middle" font-family="DejaVu Sans,Verdana,Geneva,sans-serif" font-size="11">
    <text x="408" y="15" fill="#010101" fill-opacity=".3">v1.2</text><text x="408" y="14">v1.2</text>
    <text x="455" y="15" fill="#010101" fill-opacity=".3">Delayed</text><text x="455" y="14">Delayed</text>
    <text x="498" y="15" fill="#010101" fill-opacity=".3">To do</text><text x="498" y="14">To do</text>
</g>
<rect rx="3" x="520" y="0" width="125" height="20" fill="#595959"/>
<rect rx="3" x="605" y="0" width="40" height="20" fill="#c266ff"/>
<rect rx="0" x="560" y="0" width="50" height="20" fill="#cc00cc"/>
<g fill="#fff" text-anchor="middle" font-family="DejaVu Sans,Verdana,Geneva,sans-serif" font-size="11">
    <text x="538" y="15" fill="#010101" fill-opacity=".3">v2.0</text><text x="538" y="14">v2.0</text>
    <text x="585" y="15" fill="#010101" fill-opacity=".3">Delayed</text><text x="585" y="14">Delayed</text>
    <text x="628" y="15" fill="#010101" fill-opacity=".3">To do</text><text x="628" y="14">To do</text>
</g>
<rect rx="3" x="650" y="0" width="125" height="20" fill="#595959"/>
<rect rx="3" x="735" y="0" width="40" height="20" fill="#c266ff"/>
<rect rx="0" x="690" y="0" width="50" height="20" fill="#cc00cc"/>
<g fill="#fff" text-anchor="middle" font-family="DejaVu Sans,Verdana,Geneva,sans-serif" font-size="11">
    <text x="668" y="15" fill="#010101" fill-opacity=".3">v2.1</text><text x="668" y="14">v2.1</text>
    <text x="715" y="15" fill="#010101" fill-opacity=".3">Delayed</text><text x="715" y="14">Delayed</text>
    <text x="758" y="15" fill="#010101" fill-opacity=".3">To do</text><text x="758" y="14">To do</text>
</g>
<rect rx="3" x="780" y="0" width="125" height="20" fill="#595959"/>
<rect rx="3" x="865" y="0" width="40" height="20" fill="#c266ff"/>
<rect rx="0" x="820" y="0" width="50" height="20" fill="#005ce6"/>
<g fill="#fff" text-anchor="middle" font-family="DejaVu Sans,Verdana,Geneva,sans-serif" font-size="11">
    <text x="798" y="15" fill="#010101" fill-opacity=".3">v2.2</text><text x="798" y="14">v2.2</text>
    <text x="845" y="15" fill="#010101" fill-opacity=".3">On time</text><text x="845" y="14">On time</text>
    <text x="888" y="15" fill="#010101" fill-opacity=".3">To do</text><text x="888" y="14">To do</text>
</g>
</svg>